<?xml version="1.0" encoding="UTF-8" standalone="no"?>
<!-- Created with Inkscape (http://www.inkscape.org/) -->

<svg
     xmlns:dc="http://purl.org/dc/elements/1.1/"
     xmlns:cc="http://creativecommons.org/ns#"
     xmlns:rdf="http://www.w3.org/1999/02/22-rdf-syntax-ns#"
     xmlns:svg="http://www.w3.org/2000/svg"
     xmlns="http://www.w3.org/2000/svg"
     xmlns:sodipodi="http://sodipodi.sourceforge.net/DTD/sodipodi-0.dtd"
     xmlns:inkscape="http://www.inkscape.org/namespaces/inkscape"
     width="128"
     height="128"
     id="svg3134"
     version="1.1"
     inkscape:version="0.48.5 r10040"
     sodipodi:docname="fb.svg">
    <defs
         id="defs3136" />
    <sodipodi:namedview
         id="base"
         pagecolor="#ffffff"
         bordercolor="#666666"
         borderopacity="1.0"
         inkscape:pageopacity="0.0"
         inkscape:pageshadow="2"
         inkscape:zoom="3.9867187"
         inkscape:cx="58.005095"
         inkscape:cy="61.872101"
         inkscape:document-units="px"
         inkscape:current-layer="layer1"
         showgrid="false"
         inkscape:window-width="1680"
         inkscape:window-height="941"
         inkscape:window-x="0"
         inkscape:window-y="25"
         inkscape:window-maximized="1" />
    <metadata
         id="metadata3139">
        <rdf:RDF>
            <cc:Work
                 rdf:about="">
                <dc:format>image/svg+xml</dc:format>
                <dc:type
                     rdf:resource="http://purl.org/dc/dcmitype/StillImage" />
                <dc:title />
            </cc:Work>
        </rdf:RDF>
    </metadata>
    <g
         inkscape:label="Livello 1"
         inkscape:groupmode="layer"
         id="layer1"
         transform="translate(0,-924.36218)">
        <path
             id="path5050"
             style="fill:#3d539f;fill-opacity:1;fill-rule:nonzero;stroke:none"
             d="m 120.9356,924.36172 -113.87072,0 C 3.16196,924.36172 0,927.52367 0,931.42612 l 0,113.87168 c 0,3.9015 3.16196,7.0644 7.06488,7.0644 l 61.30397,0 0,-49.5683 -16.68072,0 0,-19.31802 16.68072,0 0,-14.2463 c 0,-16.533 10.09735,-25.5355 24.84627,-25.5355 7.06441,0 13.13605,0.5261 14.90623,0.7611 l 0,17.2778 -10.22972,0 c -8.02071,0 -9.57363,3.8114 -9.57363,9.4044 l 0,12.3337 19.12904,0 -2.491,19.31802 -16.63804,0 0,49.5683 32.6176,0 c 3.90148,0 7.0644,-3.1629 7.0644,-7.0644 l 0,-113.87169 c 0,-3.90245 -3.16292,-7.0644 -7.0644,-7.0644"
             inkscape:connector-curvature="0" />
    </g>
</svg>
