<?xml version="1.0" encoding="UTF-8" standalone="no"?>
<!-- Created with Inkscape (http://www.inkscape.org/) -->

<svg
     xmlns:dc="http://purl.org/dc/elements/1.1/"
     xmlns:cc="http://creativecommons.org/ns#"
     xmlns:rdf="http://www.w3.org/1999/02/22-rdf-syntax-ns#"
     xmlns:svg="http://www.w3.org/2000/svg"
     xmlns="http://www.w3.org/2000/svg"
     xmlns:sodipodi="http://sodipodi.sourceforge.net/DTD/sodipodi-0.dtd"
     xmlns:inkscape="http://www.inkscape.org/namespaces/inkscape"
     width="128"
     height="128"
     id="svg3134"
     version="1.1"
     inkscape:version="0.48.5 r10040"
     sodipodi:docname="github.svg">
    <defs
         id="defs3136" />
    <sodipodi:namedview
         id="base"
         pagecolor="#ffffff"
         bordercolor="#666666"
         borderopacity="1.0"
         inkscape:pageopacity="0.0"
         inkscape:pageshadow="2"
         inkscape:zoom="3.9867187"
         inkscape:cx="61.683977"
         inkscape:cy="67.05598"
         inkscape:document-units="px"
         inkscape:current-layer="layer1"
         showgrid="false"
         inkscape:window-width="1680"
         inkscape:window-height="941"
         inkscape:window-x="0"
         inkscape:window-y="25"
         inkscape:window-maximized="1" />
    <metadata
         id="metadata3139">
        <rdf:RDF>
            <cc:Work
                 rdf:about="">
                <dc:format>image/svg+xml</dc:format>
                <dc:type
                     rdf:resource="http://purl.org/dc/dcmitype/StillImage" />
                <dc:title />
            </cc:Work>
        </rdf:RDF>
    </metadata>
    <g
         inkscape:label="Livello 1"
         inkscape:groupmode="layer"
         id="layer1"
         transform="translate(0,-924.36218)">
        <path
             id="path4601"
             style="fill:#1b1817;fill-opacity:1;fill-rule:evenodd;stroke:none"
             d="m 63.994105,925.94187 c -35.336628,0 -63.99410525,28.65354 -63.99410525,64.00195 0,28.27258 18.33622925,52.26258 43.76807025,60.72908 3.202063,0.5857 4.368948,-1.3908 4.368948,-3.0881 0,-1.5204 -0.05502,-5.5435 -0.08643,-10.8831 -17.801893,3.8662 -21.557932,-8.5807 -21.557932,-8.5807 -2.911325,-7.3943 -7.1074,-9.3625 -7.1074,-9.3625 -5.810859,-3.9682 0.440038,-3.8895 0.440038,-3.8895 6.42377,0.4516 9.802634,6.5964 9.802634,6.5964 5.708706,9.7792 14.980937,6.9541 18.626967,5.3159 0.581478,-4.1332 2.23555,-6.9542 4.062494,-8.5533 -14.210872,-1.6188 -29.15252,-7.1073 -29.15252,-31.63159 0,-6.98954 2.49486,-12.69824 6.588782,-17.17329 -0.660057,-1.6187 -2.856316,-8.12499 0.628627,-16.93753 0,0 5.370822,-1.72086 17.597594,6.55736 5.103655,-1.41833 10.580556,-2.12556 16.022099,-2.15305 5.437613,0.0283 10.910585,0.73472 16.022099,2.15305 12.218905,-8.27822 17.581885,-6.55736 17.581885,-6.55736 3.492805,8.81254 1.29653,15.31883 0.6404,16.93753 4.101795,4.47505 6.577015,10.18375 6.577015,17.17329 0,24.58729 -14.965238,29.99719 -29.219324,31.58069 2.294483,1.9761 4.341446,5.8815 4.341446,11.8532 0,8.5536 -0.07858,15.4566 -0.07858,17.5545 0,1.7129 1.1551,3.7051 4.40038,3.0803 C 109.67949,1042.1827 128,1018.2123 128,989.94382 128,954.59541 99.34253,925.94187 63.994112,925.94187"
             inkscape:connector-curvature="0" />
    </g>
</svg>
