<?xml version="1.0" encoding="UTF-8" standalone="no"?>
<!-- Created with Inkscape (http://www.inkscape.org/) -->

<svg
     xmlns:dc="http://purl.org/dc/elements/1.1/"
     xmlns:cc="http://creativecommons.org/ns#"
     xmlns:rdf="http://www.w3.org/1999/02/22-rdf-syntax-ns#"
     xmlns:svg="http://www.w3.org/2000/svg"
     xmlns="http://www.w3.org/2000/svg"
     xmlns:xlink="http://www.w3.org/1999/xlink"
     xmlns:sodipodi="http://sodipodi.sourceforge.net/DTD/sodipodi-0.dtd"
     xmlns:inkscape="http://www.inkscape.org/namespaces/inkscape"
     width="128"
     height="128"
     id="svg3134"
     version="1.1"
     inkscape:version="0.48.5 r10040"
     sodipodi:docname="sc.svg">
    <defs
         id="defs3136">
        <linearGradient
             id="linearGradient3833"
             spreadMethod="pad"
             gradientTransform="matrix(0,-802.86183,-802.86183,0,1089.4409,845.41531)"
             gradientUnits="userSpaceOnUse"
             y2="0"
             x2="1"
             y1="0"
             x1="0">
            <stop
                 id="stop3835"
                 offset="0"
                 style="stop-opacity:1;stop-color:#f57815" />
            <stop
                 id="stop3837"
                 offset="1"
                 style="stop-opacity:1;stop-color:#ef381f" />
        </linearGradient>
        <linearGradient
             inkscape:collect="always"
             xlink:href="#linearGradient3833"
             id="linearGradient4796"
             x1="61.508671"
             y1="924.99579"
             x2="61.508671"
             y2="1052.3328"
             gradientUnits="userSpaceOnUse" />
    </defs>
    <sodipodi:namedview
         id="base"
         pagecolor="#ffffff"
         bordercolor="#666666"
         borderopacity="1.0"
         inkscape:pageopacity="0.0"
         inkscape:pageshadow="2"
         inkscape:zoom="2.9596211"
         inkscape:cx="53.552465"
         inkscape:cy="38.559289"
         inkscape:document-units="px"
         inkscape:current-layer="layer1"
         showgrid="false"
         inkscape:window-width="1680"
         inkscape:window-height="941"
         inkscape:window-x="0"
         inkscape:window-y="25"
         inkscape:window-maximized="1" />
    <metadata
         id="metadata3139">
        <rdf:RDF>
            <cc:Work
                 rdf:about="">
                <dc:format>image/svg+xml</dc:format>
                <dc:type
                     rdf:resource="http://purl.org/dc/dcmitype/StillImage" />
                <dc:title></dc:title>
            </cc:Work>
        </rdf:RDF>
    </metadata>
    <g
         inkscape:label="Livello 1"
         inkscape:groupmode="layer"
         id="layer1"
         transform="translate(0,-924.36218)">
        <rect
             style="fill:url(#linearGradient4796);fill-opacity:1.0;fill-rule:nonzero;stroke:none"
             id="rect4020"
             width="128"
             height="128"
             x="0"
             y="924.36218" />
        <g
             transform="matrix(0.22967228,0,0,-0.22967228,-4.3597723,1089.2955)"
             inkscape:label="sc_cmyk_gradient"
             id="g3439"
             style="fill:#ffffff;fill-opacity:1">
            <g
                 id="g3441"
                 style="fill:#ffffff;fill-opacity:1">
                <g
                     id="g3443"
                     style="fill:#ffffff;fill-opacity:1">
                    <g
                         id="g3449"
                         style="fill:#ffffff;fill-opacity:1">
                        <g
                             id="g3451"
                             style="fill:#ffffff;fill-opacity:1">
                            <path
                                 id="path3459"
                                 style="fill:#ffffff;fill-opacity:1;stroke:none"
                                 d="m 283.848,360.384 10e-4,0.009 0,0.005 -10e-4,-0.014 z"
                                 inkscape:connector-curvature="0" />
                        </g>
                    </g>
                </g>
            </g>
            <g
                 id="g3461"
                 style="fill:#ffffff;fill-opacity:1">
                <g
                     id="g3463"
                     style="fill:#ffffff;fill-opacity:1">
                    <g
                         id="g3469"
                         style="fill:#ffffff;fill-opacity:1">
                        <g
                             id="g3471"
                             style="fill:#ffffff;fill-opacity:1">
                            <path
                                 id="path3479"
                                 style="fill:#ffffff;fill-opacity:1;stroke:none"
                                 d="m 254.802,497.781 -2.304,-92.95 2.305,-44.726 c 0.054,-2.849 2.319,-5.099 5.154,-5.099 l 0,0 c 2.827,0 5.091,2.25 5.153,5.131 l 0,0 0,-0.037 2.582,44.725 -2.582,92.965 c -0.062,2.871 -2.326,5.126 -5.153,5.126 l 0,0 c -2.835,0 -5.1,-2.257 -5.155,-5.135"
                                 inkscape:connector-curvature="0" />
                        </g>
                    </g>
                </g>
            </g>
            <g
                 id="g3481"
                 style="fill:#ffffff;fill-opacity:1">
                <g
                     id="g3483"
                     style="fill:#ffffff;fill-opacity:1">
                    <g
                         id="g3489"
                         style="fill:#ffffff;fill-opacity:1">
                        <g
                             id="g3491"
                             style="fill:#ffffff;fill-opacity:1">
                            <path
                                 id="path3499"
                                 style="fill:#ffffff;fill-opacity:1;stroke:none"
                                 d="m 236.946,501.309 -2.525,-96.474 2.527,-45.009 c 0.059,-2.643 2.16,-4.737 4.782,-4.737 l 0,0 c 2.612,0 4.711,2.094 4.782,4.76 l 0,0 0,-0.032 2.838,45.018 -2.838,96.479 c -0.071,2.665 -2.17,4.752 -4.782,4.752 l 0,0 c -2.622,0 -4.723,-2.09 -4.784,-4.757"
                                 inkscape:connector-curvature="0" />
                        </g>
                    </g>
                </g>
            </g>
            <g
                 id="g3501"
                 style="fill:#ffffff;fill-opacity:1">
                <g
                     id="g3503"
                     style="fill:#ffffff;fill-opacity:1">
                    <g
                         id="g3509"
                         style="fill:#ffffff;fill-opacity:1">
                        <g
                             id="g3511"
                             style="fill:#ffffff;fill-opacity:1">
                            <path
                                 id="path3519"
                                 style="fill:#ffffff;fill-opacity:1;stroke:none"
                                 d="m 283.85,360.413 -0.001,-0.015 0.001,0.008 0,0.011 c 0,-10e-4 0,-0.002 0,-0.004"
                                 inkscape:connector-curvature="0" />
                        </g>
                    </g>
                </g>
            </g>
            <g
                 id="g3521"
                 style="fill:#ffffff;fill-opacity:1">
                <g
                     id="g3523"
                     style="fill:#ffffff;fill-opacity:1">
                    <g
                         id="g3529"
                         style="fill:#ffffff;fill-opacity:1">
                        <g
                             id="g3531"
                             style="fill:#ffffff;fill-opacity:1">
                            <path
                                 id="path3539"
                                 style="fill:#ffffff;fill-opacity:1;stroke:none"
                                 d="m 283.848,360.383 10e-4,0.01 0,0.004 -10e-4,-0.014 z"
                                 inkscape:connector-curvature="0" />
                        </g>
                    </g>
                </g>
            </g>
            <g
                 id="g3541"
                 style="fill:#ffffff;fill-opacity:1">
                <g
                     id="g3543"
                     style="fill:#ffffff;fill-opacity:1">
                    <g
                         id="g3549"
                         style="fill:#ffffff;fill-opacity:1">
                        <g
                             id="g3551"
                             style="fill:#ffffff;fill-opacity:1">
                            <path
                                 id="path3559"
                                 style="fill:#ffffff;fill-opacity:1;stroke:none"
                                 d="m 209.735,359.113 0.002,0.027 -0.002,-0.027 z"
                                 inkscape:connector-curvature="0" />
                        </g>
                    </g>
                </g>
            </g>
            <g
                 id="g3561"
                 style="fill:#ffffff;fill-opacity:1">
                <g
                     id="g3563"
                     style="fill:#ffffff;fill-opacity:1">
                    <g
                         id="g3569"
                         style="fill:#ffffff;fill-opacity:1">
                        <g
                             id="g3571"
                             style="fill:#ffffff;fill-opacity:1">
                            <path
                                 id="path3579"
                                 style="fill:#ffffff;fill-opacity:1;stroke:none"
                                 d="m 201.655,500.62 c 0,-0.002 -2.963,-95.771 -2.963,-95.771 l 0,0 2.966,-45.727 c 0.075,-2.227 1.85,-3.987 4.039,-3.987 l 0,0 c 2.177,0 3.95,1.755 4.04,4.005 l 0,0 3.344,45.709 -3.344,95.773 c -0.089,2.25 -1.863,4.012 -4.04,4.012 l 0,0 c -2.189,0 -3.964,-1.764 -4.042,-4.014"
                                 inkscape:connector-curvature="0" />
                        </g>
                    </g>
                </g>
            </g>
            <g
                 id="g3581"
                 style="fill:#ffffff;fill-opacity:1">
                <g
                     id="g3583"
                     style="fill:#ffffff;fill-opacity:1">
                    <g
                         id="g3589"
                         style="fill:#ffffff;fill-opacity:1">
                        <g
                             id="g3591"
                             style="fill:#ffffff;fill-opacity:1">
                            <path
                                 id="path3599"
                                 style="fill:#ffffff;fill-opacity:1;stroke:none"
                                 d="m 228.053,359.42 -0.001,-0.023 0.002,0.026 c 0,-10e-4 -0.001,-0.002 -0.001,-0.003"
                                 inkscape:connector-curvature="0" />
                        </g>
                    </g>
                </g>
            </g>
            <g
                 id="g3601"
                 style="fill:#ffffff;fill-opacity:1">
                <g
                     id="g3603"
                     style="fill:#ffffff;fill-opacity:1">
                    <g
                         id="g3609"
                         style="fill:#ffffff;fill-opacity:1">
                        <g
                             id="g3611"
                             style="fill:#ffffff;fill-opacity:1">
                            <path
                                 id="path3619"
                                 style="fill:#ffffff;fill-opacity:1;stroke:none"
                                 d="m 219.231,503.842 -2.744,-98.998 2.747,-45.443 c 0.068,-2.433 2.005,-4.357 4.41,-4.357 l 0,0 c 2.395,0 4.33,1.923 4.409,4.376 l 0,0 3.092,45.42 -3.091,99.004 c -0.079,2.46 -2.014,4.385 -4.41,4.385 l 0,0 c -2.405,0 -4.342,-1.928 -4.413,-4.387"
                                 inkscape:connector-curvature="0" />
                        </g>
                    </g>
                </g>
            </g>
            <g
                 id="g3621"
                 style="fill:#ffffff;fill-opacity:1">
                <g
                     id="g3623"
                     style="fill:#ffffff;fill-opacity:1">
                    <g
                         id="g3629"
                         style="fill:#ffffff;fill-opacity:1">
                        <g
                             id="g3631"
                             style="fill:#ffffff;fill-opacity:1">
                            <path
                                 id="path3639"
                                 style="fill:#ffffff;fill-opacity:1;stroke:none"
                                 d="m 132.761,452.559 -3.841,-47.669 3.841,-46.116 c 0.107,-1.426 1.207,-2.505 2.557,-2.505 l 0,0 c 1.332,0 2.429,1.079 2.55,2.505 l 0,0 4.363,46.116 -4.363,47.678 c -0.121,1.424 -1.218,2.501 -2.55,2.501 l 0,0 c -1.35,0 -2.45,-1.079 -2.557,-2.51"
                                 inkscape:connector-curvature="0" />
                        </g>
                    </g>
                </g>
            </g>
            <g
                 id="g3641"
                 style="fill:#ffffff;fill-opacity:1">
                <g
                     id="g3643"
                     style="fill:#ffffff;fill-opacity:1">
                    <g
                         id="g3649"
                         style="fill:#ffffff;fill-opacity:1">
                        <g
                             id="g3651"
                             style="fill:#ffffff;fill-opacity:1">
                            <path
                                 id="path3659"
                                 style="fill:#ffffff;fill-opacity:1;stroke:none"
                                 d="m 275.347,520.044 c -1.504,-0.984 -2.519,-2.683 -2.549,-4.612 l 0,0 -0.02,-1.043 -2.066,-109.536 c 0,-0.066 2.086,-44.465 2.086,-44.465 l 0,0 c 10e-4,-0.063 0.009,-0.126 0.013,-0.188 l 0,0 c 0.062,-1.241 0.533,-2.384 1.286,-3.285 l 0,0 c 1.017,-1.219 2.54,-2.001 4.226,-2.001 l 0,0 c 1.499,0 2.867,0.617 3.867,1.615 l 0,0 c 0.999,0.995 1.632,2.368 1.66,3.884 l 0,0 0.231,4.395 2.096,40.01 -2.327,110.618 c -0.032,1.896 -1.012,3.572 -2.474,4.561 l 0,0 c -0.878,0.595 -1.929,0.943 -3.053,0.943 l 0,0 c -1.092,0 -2.114,-0.331 -2.976,-0.896"
                                 inkscape:connector-curvature="0" />
                        </g>
                    </g>
                </g>
            </g>
            <g
                 id="g3661"
                 style="fill:#ffffff;fill-opacity:1">
                <g
                     id="g3663"
                     style="fill:#ffffff;fill-opacity:1">
                    <g
                         id="g3669"
                         style="fill:#ffffff;fill-opacity:1">
                        <g
                             id="g3671"
                             style="fill:#ffffff;fill-opacity:1">
                            <path
                                 id="path3679"
                                 style="fill:#ffffff;fill-opacity:1;stroke:none"
                                 d="m 149.776,449.104 -3.625,-44.218 3.625,-46.496 c 0.098,-1.638 1.355,-2.881 2.924,-2.881 l 0,0 c 1.554,0 2.811,1.242 2.925,2.883 l 0,0 4.107,46.494 -4.107,44.236 c -0.112,1.63 -1.37,2.87 -2.925,2.87 l 0,0 c -1.569,0 -2.826,-1.241 -2.924,-2.888"
                                 inkscape:connector-curvature="0" />
                        </g>
                    </g>
                </g>
            </g>
            <g
                 id="g3681"
                 style="fill:#ffffff;fill-opacity:1">
                <g
                     id="g3683"
                     style="fill:#ffffff;fill-opacity:1">
                    <g
                         id="g3689"
                         style="fill:#ffffff;fill-opacity:1">
                        <g
                             id="g3691"
                             style="fill:#ffffff;fill-opacity:1">
                            <path
                                 id="path3699"
                                 style="fill:#ffffff;fill-opacity:1;stroke:none"
                                 d="m 166.93,476.81 c 0,-0.002 -3.404,-71.942 -3.404,-71.942 l 0,0 3.404,-46.492 c 0.089,-1.815 1.538,-3.25 3.298,-3.25 l 0,0 c 1.744,0 3.191,1.435 3.295,3.26 l 0,0 0,-0.014 3.851,46.496 -3.851,71.945 c -0.104,1.829 -1.551,3.26 -3.295,3.26 l 0,0 c -1.76,0 -3.209,-1.434 -3.298,-3.263"
                                 inkscape:connector-curvature="0" />
                        </g>
                    </g>
                </g>
            </g>
            <g
                 id="g3701"
                 style="fill:#ffffff;fill-opacity:1">
                <g
                     id="g3703"
                     style="fill:#ffffff;fill-opacity:1">
                    <g
                         id="g3709"
                         style="fill:#ffffff;fill-opacity:1">
                        <g
                             id="g3711"
                             style="fill:#ffffff;fill-opacity:1">
                            <path
                                 id="path3719"
                                 style="fill:#ffffff;fill-opacity:1;stroke:none"
                                 d="m 183.95,493.012 c 0,-0.005 -3.181,-88.395 -3.181,-88.395 l 0,0 3.185,-46.204 c 0.082,-2.021 1.693,-3.617 3.668,-3.617 l 0,0 c 1.957,0 3.566,1.59 3.665,3.624 l 0,0 3.601,46.197 -3.6,88.395 c -0.094,2.039 -1.705,3.635 -3.666,3.635 l 0,0 c -1.975,0 -3.586,-1.596 -3.672,-3.635 m 7.338,-134.581 c 0,0 0,0 0,0"
                                 inkscape:connector-curvature="0" />
                        </g>
                    </g>
                </g>
            </g>
            <g
                 id="g3721"
                 style="fill:#ffffff;fill-opacity:1">
                <g
                     id="g3723"
                     style="fill:#ffffff;fill-opacity:1">
                    <g
                         id="g3729"
                         style="fill:#ffffff;fill-opacity:1">
                        <g
                             id="g3731"
                             style="fill:#ffffff;fill-opacity:1">
                            <path
                                 id="path3739"
                                 style="fill:#ffffff;fill-opacity:1;stroke:none"
                                 d="m 155.625,358.392 0,-0.006 0.001,0.009 c 0,-0.002 -0.001,-0.002 -0.001,-0.003"
                                 inkscape:connector-curvature="0" />
                        </g>
                    </g>
                </g>
            </g>
            <g
                 id="g3741"
                 style="fill:#ffffff;fill-opacity:1">
                <g
                     id="g3743"
                     style="fill:#ffffff;fill-opacity:1">
                    <g
                         id="g3749"
                         style="fill:#ffffff;fill-opacity:1">
                        <g
                             id="g3751"
                             style="fill:#ffffff;fill-opacity:1">
                            <path
                                 id="path3759"
                                 style="fill:#ffffff;fill-opacity:1;stroke:none"
                                 d="m 292.89,529.987 c -1.309,-1.08 -2.156,-2.713 -2.18,-4.536 l 0,0 -0.013,-0.608 -2.405,-120.036 1.227,-22.189 1.192,-21.594 c 0.042,-3.197 2.686,-5.835 5.9,-5.835 l 0,0 c 3.203,0 5.847,2.638 5.892,5.881 l 0,0 0,-0.05 0,-10e-4 2.626,43.788 0,10e-4 -2.626,120.652 c -0.028,2.13 -1.189,3.996 -2.892,5.026 l 0,0 c -0.882,0.534 -1.906,0.847 -3,0.847 l 0,0 c -1.406,0 -2.703,-0.506 -3.721,-1.346"
                                 inkscape:connector-curvature="0" />
                        </g>
                    </g>
                </g>
            </g>
            <g
                 id="g3761"
                 style="fill:#ffffff;fill-opacity:1">
                <g
                     id="g3763"
                     style="fill:#ffffff;fill-opacity:1">
                    <g
                         id="g3769"
                         style="fill:#ffffff;fill-opacity:1">
                        <g
                             id="g3771"
                             style="fill:#ffffff;fill-opacity:1">
                            <path
                                 id="path3779"
                                 style="fill:#ffffff;fill-opacity:1;stroke:none"
                                 d="m 83.122,429.084 -3.183,-24.18 3.183,-23.768 c 0.12,-1.002 0.838,-1.702 1.746,-1.702 l 0,0 c 0.883,0 1.598,0.694 1.743,1.693 l 0,0 3.77,23.777 -3.77,24.189 c -0.144,0.997 -0.86,1.695 -1.743,1.695 l 0,0 c -0.908,0 -1.626,-0.702 -1.746,-1.704"
                                 inkscape:connector-curvature="0" />
                        </g>
                    </g>
                </g>
            </g>
            <g
                 id="g3781"
                 style="fill:#ffffff;fill-opacity:1">
                <g
                     id="g3783"
                     style="fill:#ffffff;fill-opacity:1">
                    <g
                         id="g3789"
                         style="fill:#ffffff;fill-opacity:1">
                        <g
                             id="g3791"
                             style="fill:#ffffff;fill-opacity:1">
                            <path
                                 id="path3799"
                                 style="fill:#ffffff;fill-opacity:1;stroke:none"
                                 d="m 99.156,444.003 c 0,-0.003 -4.282,-39.099 -4.282,-39.099 l 0,0 4.282,-38.238 c 0.123,-1.023 0.885,-1.765 1.81,-1.765 l 0,0 c 0.918,0 1.66,0.723 1.807,1.756 l 0,0 4.872,38.247 -4.87,39.101 c -0.149,1.039 -0.891,1.758 -1.809,1.758 l 0,0 c -0.925,0 -1.687,-0.74 -1.81,-1.76"
                                 inkscape:connector-curvature="0" />
                        </g>
                    </g>
                </g>
            </g>
            <g
                 id="g3801"
                 style="fill:#ffffff;fill-opacity:1">
                <g
                     id="g3803"
                     style="fill:#ffffff;fill-opacity:1">
                    <g
                         id="g3809"
                         style="fill:#ffffff;fill-opacity:1">
                        <g
                             id="g3811"
                             style="fill:#ffffff;fill-opacity:1">
                            <path
                                 id="path3819"
                                 style="fill:#ffffff;fill-opacity:1;stroke:none"
                                 d="m 115.888,451.292 c 0,-0.002 -4.063,-46.392 -4.063,-46.392 l 0,0 4.063,-44.699 c 0.115,-1.243 1.033,-2.141 2.183,-2.141 l 0,0 c 1.13,0 2.045,0.898 2.179,2.132 l 0,0 4.618,44.708 -4.615,46.394 c -0.137,1.24 -1.052,2.136 -2.182,2.136 l 0,0 c -1.15,0 -2.068,-0.899 -2.183,-2.138"
                                 inkscape:connector-curvature="0" />
                        </g>
                    </g>
                </g>
            </g>
            <g
                 id="g3821"
                 style="fill:#ffffff;fill-opacity:1">
                <g
                     id="g3823"
                     style="fill:#ffffff;fill-opacity:1">
                    <g
                         id="g3829"
                         style="fill:#ffffff;fill-opacity:1">
                        <g
                             id="g3831"
                             style="fill:#ffffff;fill-opacity:1">
                            <path
                                 id="path3839"
                                 style="fill:#ffffff;fill-opacity:1;stroke:none"
                                 d="m 312.711,537.481 c -4.043,-1.567 -5.115,-3.171 -5.154,-6.297 l 0,0 0,-169.973 c 0.042,-3.278 2.586,-5.825 5.785,-6.145 l 0,0 c 0.136,-0.014 148.449,0 148.449,0 l 0,0 c 29.577,0 53.551,23.71 53.551,53.29 l 0,0 c 0,29.581 -23.974,53.558 -53.551,53.558 l 0,0 c -7.338,0 -14.34,-1.488 -20.714,-4.159 l 0,0 c -4.263,48.263 -44.735,86.126 -94.106,86.126 l 0,0 c -12.082,0 -23.858,-2.375 -34.26,-6.4"
                                 inkscape:connector-curvature="0" />
                        </g>
                    </g>
                </g>
            </g>
        </g>
    </g>
</svg>
